<svg xmlns="http://www.w3.org/2000/svg" xmlns:xlink="http://www.w3.org/1999/xlink" xml:space="preserve" width="16" height="16">
    <defs>
        <linearGradient id="a">
            <stop offset="0" style="stop-color:#fff;stop-opacity:1"/>
            <stop offset="1" style="stop-color:#4d81b4;stop-opacity:1"/>
        </linearGradient>
        <linearGradient xlink:href="#a" id="b" x1="37.669" x2="215.769" y1="87.94" y2="87.94" gradientUnits="userSpaceOnUse"/>
    </defs>
    <path d="M42.65.944 4.864 361.404" style="fill:#4d81b4;fill-opacity:1;stroke:#4d81b4;stroke-width:22.0714;stroke-linecap:round;stroke-dasharray:none;stroke-opacity:1" transform="matrix(.02649 -.00355 .00355 .02649 1.875 .968)"/>
    <path d="M203.869 92.783c-18.9 3.1-49.6 3.9-70.1-34.8-21.9-41.7-57.3-42.9-78-39.1-10.1 1.9-17.6 10.3-17.6 18.4v103.6c5.9 2.3 12.3-.1 14-.4.4-.1.8-.2 1.3-.3 13.2-2.9 27.1-4.3 61.5 12.3 43.2 20.7 81-17.4 95.7-44 1.1-1.9 4.6-10.6 4.6-19.1-5.2 2.1-11.4 3.4-11.4 3.4z" style="fill:url(#b);stroke:#4d81b4;stroke-width:21.6396;stroke-dasharray:none;stroke-opacity:1" transform="rotate(-3.135 9.921 -37.554)scale(.02673)"/>
    <path d="M1.993 2.531v.95M2 3.485h2.06m-.001-.949v.95" style="fill:#2d6296;stroke:#2d6296;stroke-width:.184;stroke-linecap:square" transform="translate(-.104 .003)scale(3.85557)"/>
    <g style="fill:#4d81b4;fill-opacity:1">
        <path d="M1.992 2.557v.924" style="fill:#4d81b4;fill-opacity:1;stroke:#d4e5f2;stroke-width:.181668;stroke-linecap:square;stroke-opacity:1" transform="matrix(3.29692 0 0 3.37374 1.515 1.088)"/>
        <path d="M1.999 3.486H4.06" style="fill:#d4e5f2;fill-opacity:1;stroke:#d4e5f2;stroke-width:.181668;stroke-linecap:square;stroke-opacity:1" transform="matrix(3.29692 0 0 3.37374 1.515 1.088)"/>
        <path d="M4.06 2.563v.924" style="fill:#4d81b4;fill-opacity:1;stroke:#d4e5f2;stroke-width:.181668;stroke-linecap:square;stroke-opacity:1" transform="matrix(3.29692 0 0 3.37374 1.515 1.088)"/>
        <path d="M2.4 1.2h2l-1 1.138z" style="fill:#2d6296;fill-opacity:1;stroke:none;stroke-width:.559229px;stroke-linecap:butt;stroke-linejoin:miter;stroke-opacity:1" transform="translate(3.582 4.546)scale(2.35178)"/>
        <path d="M3.384-.488v1.81" style="fill:none;fill-opacity:1;stroke:#2d6296;stroke-width:.374534px;stroke-linecap:butt;stroke-linejoin:miter;stroke-opacity:1" transform="translate(3.582 4.546)scale(2.35178)"/>
    </g>
</svg>
