<svg xmlns="http://www.w3.org/2000/svg" xmlns:xlink="http://www.w3.org/1999/xlink" xml:space="preserve" width="16" height="16">
    <defs>
        <linearGradient id="a">
            <stop offset="0" style="stop-color:#cae2f9;stop-opacity:1"/>
            <stop offset="1" style="stop-color:#fdfeff;stop-opacity:1"/>
        </linearGradient>
        <linearGradient xlink:href="#a" id="b" x1="-1.399" x2=".808" y1="1.9" y2="4.389" gradientTransform="matrix(1.1809 0 0 1.1912 4.13 .125)" gradientUnits="userSpaceOnUse"/>
        <linearGradient xlink:href="#a" id="c" x1="144.286" x2="23.46" y1="144.286" y2="3.881" gradientTransform="matrix(.00539 0 0 .01533 -.56 -2.911)" gradientUnits="userSpaceOnUse"/>
    </defs>
    <g transform="translate(-.815 1.139)scale(3.57832)">
        <rect width="3.817" height="2.769" x=".652" y="1.143" ry=".774" style="fill:url(#b);fill-opacity:1;stroke:#4d81b4;stroke-width:.251;stroke-linecap:round;stroke-miterlimit:4;stroke-dasharray:.753,.753;stroke-dashoffset:0;stroke-opacity:1"/>
        <path d="M-.434-2.852h.651v2.153h-.65z" style="fill:url(#c);fill-opacity:1;stroke:#4d81b4;stroke-width:.17;stroke-linejoin:bevel;stroke-miterlimit:4;stroke-dasharray:none;stroke-dashoffset:0;stroke-opacity:1" transform="rotate(90 -.237 1.022)"/>
        <path d="M-.473-2.324h.737m-.65 1.052h.623m-.732-.512h.737" style="fill:none;stroke:#4d81b4;stroke-width:.17;stroke-linecap:butt;stroke-linejoin:miter;stroke-miterlimit:4;stroke-dasharray:none;stroke-opacity:1" transform="rotate(90 -.237 1.022)"/>
        <g style="stroke:#2d6296;stroke-width:.206598;stroke-dasharray:none;stroke-opacity:1">
            <path d="m6.977 3.05-1.095-.006" style="fill:none;stroke:#2d6296;stroke-width:.217608;stroke-linecap:round;stroke-linejoin:miter;stroke-miterlimit:3.9;stroke-dasharray:none;stroke-dashoffset:.415627;stroke-opacity:1" transform="matrix(.68094 .57767 -.65971 .59626 -1.652 -5.195)"/>
            <path d="m7.161 3.048-.538-.47" style="fill:none;stroke:#2d6296;stroke-width:.198948;stroke-linecap:round;stroke-linejoin:round;stroke-miterlimit:4;stroke-dasharray:none;stroke-opacity:1" transform="matrix(.68094 .57767 -.65971 .59626 -1.652 -5.195)"/>
            <path d="m7.154 3.054-.568.466" style="fill:none;stroke:#2d6296;stroke-width:.201976;stroke-linecap:round;stroke-linejoin:round;stroke-miterlimit:4;stroke-dasharray:none;stroke-opacity:1" transform="matrix(.68094 .57767 -.65971 .59626 -1.652 -5.195)"/>
        </g>
    </g>
</svg>
