<svg xmlns="http://www.w3.org/2000/svg" xml:space="preserve" width="16" height="16">
    <path d="M103.183 57.801 35.32 125.578" style="fill:none;stroke:#2d6296;stroke-width:9.96753;stroke-linecap:round;stroke-linejoin:miter;stroke-miterlimit:4;stroke-dasharray:none;stroke-opacity:1" transform="matrix(.0615 .06405 -.06142 .06412 6.2 -2.027)"/>
    <path d="m148.593 12.39-26.32 64.505m26.32-64.505L84.09 38.71m38.243 38.125L84.03 38.77" style="fill:#000;fill-opacity:1;stroke:#2d6296;stroke-width:10;stroke-linecap:round;stroke-linejoin:round;stroke-miterlimit:4;stroke-dasharray:none;stroke-opacity:1" transform="matrix(.0615 .06405 -.06142 .06412 6.2 -2.027)"/>
    <path d="m205.741 58.84-96.825-97.45" style="fill:none;stroke:#2d6296;stroke-width:10.0504;stroke-linecap:round;stroke-linejoin:miter;stroke-miterlimit:4;stroke-dasharray:none;stroke-opacity:1" transform="matrix(.0615 .06405 -.06142 .06412 6.2 -2.027)"/>
    <path d="m5.157 2.172-.643-.845.563-.203M5.05 2.5l-.826-1.07m-.303-.079 1.162-.49m.184.027-.642 1.054-.465-.5m1.511-.59-.808 1.349m.045.353-1.037-1" style="fill:none;fill-opacity:1;stroke:#2d6296;stroke-width:.342978;stroke-linecap:round;stroke-linejoin:round;stroke-miterlimit:4;stroke-dasharray:none;stroke-opacity:1" transform="matrix(1.58317 1.57787 -1.51321 1.65082 5.901 -1.97)"/>
</svg>
