<svg xmlns="http://www.w3.org/2000/svg" width="16" height="16">
    <path d="m103.18 57.803-78.6 78.504" style="fill:none;stroke:#4d81b4;stroke-width:10;stroke-linecap:round;stroke-linejoin:miter;stroke-miterlimit:4;stroke-dasharray:none;stroke-opacity:1" transform="matrix(.09712 .00214 -.00214 .09712 -.18 .418)"/>
    <path d="m148.593 12.39-26.32 64.505m26.32-64.505L84.09 38.71m38.243 38.125L84.03 38.77" style="fill:#000;fill-opacity:1;stroke:#4d81b4;stroke-width:10;stroke-linecap:round;stroke-linejoin:round;stroke-miterlimit:4;stroke-dasharray:none;stroke-opacity:1" transform="matrix(.09712 .00214 -.00214 .09712 -.18 .418)"/>
    <path d="m5.157 2.172-.643-.845.563-.203M5.05 2.5l-.826-1.07m-.303-.079 1.162-.49m.184.027-.642 1.054-.465-.5m1.511-.59-.808 1.349m.045.353-1.037-1" style="fill:none;fill-opacity:1;stroke:#4d81b4;stroke-width:.342978;stroke-linecap:round;stroke-linejoin:round;stroke-miterlimit:4;stroke-dasharray:none;stroke-opacity:1" transform="translate(-.38 .693)scale(2.44776)"/>
</svg>
