<svg xmlns="http://www.w3.org/2000/svg" xml:space="preserve" width="16" height="16">
    <path d="M2.332-.32c-.208.123-.443.274-.69.437" style="fill:none;stroke:#4d81b4;stroke-width:.159102;stroke-linecap:round;stroke-linejoin:round;stroke-miterlimit:4;stroke-dasharray:none;stroke-opacity:1" transform="matrix(-.0731 -3.2043 3.91452 -.01114 6.83 13.085)"/>
    <path d="M-.524-1.535-.53 2.197" style="fill:none;stroke:#4d81b4;stroke-width:.159301;stroke-linecap:square;stroke-linejoin:miter;stroke-miterlimit:4;stroke-dasharray:none;stroke-opacity:1" transform="matrix(-.0731 -3.2043 3.91452 -.01114 6.83 13.085)"/>
    <path d="M3.958-1.451 3.954 2.28" style="fill:none;stroke:#4d81b4;stroke-width:.15935;stroke-linecap:square;stroke-linejoin:miter;stroke-miterlimit:4;stroke-dasharray:none;stroke-opacity:1" transform="matrix(-.0731 -3.2043 3.91452 -.01114 6.83 13.085)"/>
    <path d="m3.422 2.247-3.748-.063" style="fill:none;stroke:#4d81b4;stroke-width:.159301;stroke-linecap:square;stroke-linejoin:miter;stroke-miterlimit:4;stroke-dasharray:.477903,.477903;stroke-dashoffset:0;stroke-opacity:1" transform="matrix(-.0731 -3.2043 3.91452 -.01114 6.83 13.085)"/>
    <path d="M2.21-.318 1.185-.331" style="fill:none;stroke:#4d81b4;stroke-width:.15935;stroke-linecap:square;stroke-linejoin:miter;stroke-miterlimit:4;stroke-dasharray:none;stroke-dashoffset:0;stroke-opacity:1" transform="matrix(-.0731 -3.2043 3.91452 -.01114 6.83 13.085)"/>
    <path d="m3.361-.309-.515-.006M.693-.334.178-.341" style="fill:#2d6296;stroke:#4d81b4;stroke-width:.15935;stroke-linecap:square;stroke-dasharray:none;stroke-dashoffset:0;stroke-opacity:1" transform="matrix(-.0731 -3.2043 3.91452 -.01114 6.83 13.085)"/>
    <path d="m1.433 2.113.09.726" style="fill:none;stroke:#4d81b4;stroke-width:.150765;stroke-linecap:round;stroke-linejoin:round;stroke-miterlimit:4;stroke-dasharray:none;stroke-opacity:1" transform="rotate(45 8.076 6.77)scale(3.73762)"/>
</svg>
