<svg xmlns="http://www.w3.org/2000/svg" xmlns:xlink="http://www.w3.org/1999/xlink" xml:space="preserve" width="16" height="16">
    <defs>
        <linearGradient id="a">
            <stop offset="0" style="stop-color:#cae2f9;stop-opacity:1"/>
            <stop offset="1" style="stop-color:#fdfeff;stop-opacity:1"/>
        </linearGradient>
        <linearGradient xlink:href="#a" id="b" x1="144.286" x2="23.46" y1="144.286" y2="3.881" gradientTransform="matrix(.02182 0 0 .01486 .677 1.102)" gradientUnits="userSpaceOnUse"/>
    </defs>
    <g style="stroke-width:1.07303">
        <path d="M1.189 1.16h2.636v2.087H1.19Z" style="fill:url(#b);fill-opacity:1;stroke:#4d81b4;stroke-width:.227125;stroke-linejoin:bevel;stroke-miterlimit:4;stroke-dasharray:none;stroke-dashoffset:0;stroke-opacity:1" transform="matrix(3.41946 0 0 3.93715 -.323 -.587)"/>
        <path d="M1.464 2.823H3.55" style="fill:none;stroke:#4d81b4;stroke-width:.227125;stroke-linecap:butt;stroke-linejoin:miter;stroke-miterlimit:4;stroke-dasharray:none;stroke-opacity:1" transform="matrix(3.41946 0 0 3.93715 -.323 -.587)"/>
        <path d="M2.507 1.857v-.264" style="fill:none;stroke:#4d81b4;stroke-width:.210222;stroke-linecap:butt;stroke-linejoin:miter;stroke-miterlimit:4;stroke-dasharray:none;stroke-dashoffset:0;stroke-opacity:1" transform="matrix(3.41946 0 0 3.93715 -.323 -.587)"/>
        <path d="M2.507 2.457V2.06" style="fill:none;stroke:#4d81b4;stroke-width:.224781;stroke-linecap:butt;stroke-linejoin:miter;stroke-miterlimit:4;stroke-dasharray:none;stroke-dashoffset:0;stroke-opacity:1" transform="matrix(3.41946 0 0 3.93715 -.323 -.587)"/>
    </g>
    <text xml:space="preserve" x="6.776" y="4.513" style="font-size:2.94021px;fill:#2d6296;fill-opacity:1;stroke:#2d6296;stroke-width:.15;stroke-linecap:square;stroke-linejoin:bevel;stroke-dasharray:none;stroke-opacity:1" transform="matrix(3.39445 0 0 4.56662 -22.594 -8.698)"><tspan x="6.776" y="4.513" style="fill:#2d6296;fill-opacity:1;stroke:#2d6296;stroke-width:.15;stroke-dasharray:none;stroke-opacity:1">[</tspan></text>
    <text xml:space="preserve" x="-11.407" y="4.507" style="font-size:2.94021px;fill:#2d6296;fill-opacity:1;stroke:#2d6296;stroke-width:.15;stroke-linecap:square;stroke-linejoin:bevel;stroke-dasharray:none;stroke-opacity:1" transform="matrix(-3.39445 0 0 4.56662 -22.594 -8.698)"><tspan x="-11.407" y="4.507" style="fill:#2d6296;fill-opacity:1;stroke:#2d6296;stroke-width:.15;stroke-dasharray:none;stroke-opacity:1">[</tspan></text>
</svg>
