<svg xmlns="http://www.w3.org/2000/svg" width="16" height="16">
    <path d="M2.506 3.925V2.814l.591.59z" style="fill:#4d81b4;fill-opacity:1;stroke:none;stroke-width:.302414px;stroke-linecap:butt;stroke-linejoin:miter;stroke-opacity:1" transform="translate(.082 .101)scale(2.46597)"/>
    <path d="M2.224 4.65c-.824-.758-.731-1.799 0-2.568" style="fill:none;stroke:#4d81b4;stroke-width:.264583px;stroke-linecap:butt;stroke-linejoin:miter;stroke-opacity:1" transform="translate(.082 .101)scale(2.46597)"/>
    <path d="M2.482 3.894V2.783l.591.591z" style="fill:#4d81b4;fill-opacity:1;stroke:none;stroke-width:.302414px;stroke-linecap:butt;stroke-linejoin:miter;stroke-opacity:1" transform="matrix(-2.46597 0 0 2.46597 16.556 .177)"/>
    <path d="M2.2 4.62c-.824-.759-.731-1.8 0-2.569" style="fill:none;stroke:#4d81b4;stroke-width:.264583px;stroke-linecap:butt;stroke-linejoin:miter;stroke-opacity:1" transform="matrix(-2.46597 0 0 2.46597 16.556 .177)"/>
    <path d="M2.4 1.2h2l-1 1.138z" style="fill:#4d81b4;fill-opacity:1;stroke:none;stroke-width:.559229px;stroke-linecap:butt;stroke-linejoin:miter;stroke-opacity:1" transform="translate(.082 .101)scale(2.46597)"/>
    <path d="M3.384.418v.903" style="fill:none;fill-opacity:1;stroke:#4d81b4;stroke-width:.264583px;stroke-linecap:butt;stroke-linejoin:miter;stroke-opacity:1" transform="translate(.082 .101)scale(2.46597)"/>
    <path d="M2.4 1.2h2l-1 1.138z" style="fill:#4d81b4;fill-opacity:1;stroke:none;stroke-width:.559229px;stroke-linecap:butt;stroke-linejoin:miter;stroke-opacity:1" transform="translate(.082 10.048)scale(2.46597)"/>
    <path d="M3.384.418v.903" style="fill:none;fill-opacity:1;stroke:#4d81b4;stroke-width:.264583px;stroke-linecap:butt;stroke-linejoin:miter;stroke-opacity:1" transform="translate(.082 10.048)scale(2.46597)"/>
</svg>
