<svg xmlns="http://www.w3.org/2000/svg" width="16" height="16">
    <path d="M2.506 3.925V2.814l.591.59z" style="fill:#4d81b4;fill-opacity:1;stroke:none;stroke-width:.302414px;stroke-linecap:butt;stroke-linejoin:miter;stroke-opacity:1" transform="translate(-.18 -.952)scale(2.63561)"/>
    <path d="M2.224 4.65c-.824-.758-.731-1.799 0-2.568" style="fill:none;stroke:#4d81b4;stroke-width:.264583px;stroke-linecap:butt;stroke-linejoin:miter;stroke-opacity:1" transform="translate(-.18 -.952)scale(2.63561)"/>
    <path d="M2.482 3.894V2.783l.591.591z" style="fill:#4d81b4;fill-opacity:1;stroke:none;stroke-width:.302414px;stroke-linecap:butt;stroke-linejoin:miter;stroke-opacity:1" transform="matrix(-2.63561 0 0 2.63561 17.428 -.871)"/>
    <path d="M2.2 4.62c-.824-.759-.731-1.8 0-2.569" style="fill:none;stroke:#4d81b4;stroke-width:.264583px;stroke-linecap:butt;stroke-linejoin:miter;stroke-opacity:1" transform="matrix(-2.63561 0 0 2.63561 17.428 -.871)"/>
    <path d="M2.4 1.2h2l-1 1.138z" style="fill:#4d81b4;fill-opacity:1;stroke:none;stroke-width:.559229px;stroke-linecap:butt;stroke-linejoin:miter;stroke-opacity:1" transform="rotate(90 1.503 5.546)scale(2.63561)"/>
    <path d="M2.198-.646h1.186v1.967" style="fill:none;fill-opacity:1;stroke:#4d81b4;stroke-width:.264583px;stroke-linecap:butt;stroke-linejoin:miter;stroke-opacity:1" transform="rotate(90 1.503 5.546)scale(2.63561)"/>
</svg>
