<svg xmlns="http://www.w3.org/2000/svg" xmlns:xlink="http://www.w3.org/1999/xlink" xml:space="preserve" width="16" height="16">
    <defs>
        <linearGradient id="b">
            <stop offset="0" style="stop-color:#fff;stop-opacity:1"/>
            <stop offset="1" style="stop-color:#4d81b4;stop-opacity:1"/>
        </linearGradient>
        <linearGradient id="a">
            <stop offset="0" style="stop-color:#cae2f9;stop-opacity:1"/>
            <stop offset="1" style="stop-color:#fdfeff;stop-opacity:1"/>
        </linearGradient>
        <linearGradient xlink:href="#a" id="d" x1="144.286" x2="23.46" y1="144.286" y2="3.881" gradientTransform="matrix(.028 0 0 .01552 .032 1.1)" gradientUnits="userSpaceOnUse"/>
        <linearGradient xlink:href="#b" id="c" x1="37.669" x2="215.769" y1="87.94" y2="87.94" gradientUnits="userSpaceOnUse"/>
    </defs>
    <path fill="none" d="M1.231 1.429h2.277v1.552H1.231z" style="fill:#4b7eb0;fill-opacity:0;stroke:none;stroke-width:.0756102;stroke-miterlimit:4;stroke-dasharray:none;stroke-opacity:.827451" transform="translate(-1.308 -.25)scale(3.90867)"/>
    <path d="M42.65.944 26.18 202.182" style="fill:#4d81b4;fill-opacity:1;stroke:#4d81b4;stroke-width:22.0714;stroke-linecap:round;stroke-dasharray:none;stroke-opacity:1" transform="rotate(-7.632 10.538 -7.38)scale(.02709)"/>
    <path d="M203.869 92.783c-18.9 3.1-49.6 3.9-70.1-34.8-21.9-41.7-57.3-42.9-78-39.1-10.1 1.9-17.6 10.3-17.6 18.4v103.6c5.9 2.3 12.3-.1 14-.4.4-.1.8-.2 1.3-.3 13.2-2.9 27.1-4.3 61.5 12.3 43.2 20.7 81-17.4 95.7-44 1.1-1.9 4.6-10.6 4.6-19.1-5.2 2.1-11.4 3.4-11.4 3.4z" style="fill:url(#c);stroke:#4d81b4;stroke-width:21.6396;stroke-dasharray:none;stroke-opacity:1" transform="rotate(-3.114 16.152 -22.67)scale(.02709)"/>
    <path d="M.689 1.161h3.384v2.18H.689Z" style="fill:url(#d);fill-opacity:1;stroke:#4d81b4;stroke-width:.25;stroke-linejoin:bevel;stroke-miterlimit:4;stroke-dasharray:none;stroke-dashoffset:0;stroke-opacity:1" transform="translate(-1.306 1.668)scale(3.90867)"/>
    <text xml:space="preserve" x=".924" y="2.833" style="font-style:normal;font-weight:400;font-size:1.5875px;line-height:1.25;font-family:sans-serif;letter-spacing:0;word-spacing:0;fill:#4d81b4;fill-opacity:1;stroke:none;stroke-width:.264583" transform="translate(-1.306 1.668)scale(3.90867)"><tspan x=".924" y="2.833" style="font-style:normal;font-variant:normal;font-weight:700;font-stretch:normal;font-size:1.5875px;font-family:Arial;-inkscape-font-specification:&quot;Arial Bold&quot;;fill:#4d81b4;fill-opacity:1;stroke-width:.264583">&lt;S&gt;</tspan></text>
</svg>
