<svg xmlns="http://www.w3.org/2000/svg" xmlns:xlink="http://www.w3.org/1999/xlink" xml:space="preserve" width="16" height="16">
    <defs>
        <linearGradient id="a">
            <stop offset="0" style="stop-color:#cae2f9;stop-opacity:1"/>
            <stop offset="1" style="stop-color:#fdfeff;stop-opacity:1"/>
        </linearGradient>
        <linearGradient xlink:href="#a" id="b" x1="79.25" x2="80.691" y1="-147.392" y2="131.079" gradientTransform="matrix(.01923 0 0 .0114 1.308 1.943)" gradientUnits="userSpaceOnUse"/>
    </defs>
    <path d="M1.76 1.987h2.323V3.59H1.76Z" style="fill:url(#b);fill-opacity:1;stroke:#2d6296;stroke-width:.16514;stroke-linejoin:bevel;stroke-miterlimit:4;stroke-dasharray:.33028,.16514;stroke-dashoffset:0;stroke-opacity:1" transform="translate(-1.582 -1.343)scale(3.99175)"/>
    <path d="M2.224 4.65c-.824-.758-.731-1.799 0-2.568" style="fill:none;stroke:#2d6296;stroke-width:.264583px;stroke-linecap:butt;stroke-linejoin:miter;stroke-opacity:1" transform="translate(-1.975 -1.67)scale(2.43484)"/>
    <path d="M2.2 4.62c-.824-.759-.731-1.8 0-2.569" style="fill:none;stroke:#2d6296;stroke-width:.264583px;stroke-linecap:butt;stroke-linejoin:miter;stroke-opacity:1" transform="matrix(-2.43484 0 0 2.43484 14.292 -1.595)"/>
    <path d="M4.104 3.355h-1.62" style="fill:#2d6296;stroke:#2d6296;stroke-width:.275806;stroke-linecap:square;stroke-linejoin:round;stroke-dasharray:none" transform="matrix(-2.43484 0 0 2.43484 14.292 -1.595)"/>
    <path d="m4.162 2.972.01.766M2.37 2.972l.01.766" style="fill:#2d6296;stroke:#2d6296;stroke-width:.326035;stroke-linecap:square;stroke-linejoin:round;stroke-dasharray:none" transform="matrix(-2.43484 0 0 2.43484 14.292 -1.595)"/>
</svg>
