<svg xmlns="http://www.w3.org/2000/svg" xmlns:xlink="http://www.w3.org/1999/xlink" xml:space="preserve" width="16" height="16">
    <defs>
        <linearGradient id="b">
            <stop offset="0" style="stop-color:#fff;stop-opacity:1"/>
            <stop offset="1" style="stop-color:#d4e5f2;stop-opacity:1"/>
        </linearGradient>
        <linearGradient id="a">
            <stop offset="0" style="stop-color:#fff;stop-opacity:1"/>
            <stop offset="1" style="stop-color:#4d81b4;stop-opacity:1"/>
        </linearGradient>
        <linearGradient xlink:href="#a" id="c" x1="37.669" x2="215.769" y1="87.94" y2="87.94" gradientUnits="userSpaceOnUse"/>
        <linearGradient xlink:href="#b" id="d" x1="3.176" x2="3.151" y1="1.542" y2="3.583" gradientTransform="translate(.353 .3)scale(.88804)" gradientUnits="userSpaceOnUse"/>
    </defs>
    <g transform="translate(-2.51 -.184)scale(4.25822)">
        <path d="M42.65.944 4.864 361.404" style="fill:#4d81b4;fill-opacity:1;stroke:#4d81b4;stroke-width:22.0714;stroke-linecap:round;stroke-dasharray:none;stroke-opacity:1" transform="rotate(-7.517 2.126 -3.728)scale(.00693)"/>
        <path d="M203.869 92.783c-18.9 3.1-49.6 3.9-70.1-34.8-21.9-41.7-57.3-42.9-78-39.1-10.1 1.9-17.6 10.3-17.6 18.4v103.6c5.9 2.3 12.3-.1 14-.4.4-.1.8-.2 1.3-.3 13.2-2.9 27.1-4.3 61.5 12.3 43.2 20.7 81-17.4 95.7-44 1.1-1.9 4.6-10.6 4.6-19.1-5.2 2.1-11.4 3.4-11.4 3.4z" style="fill:url(#c);stroke:#4d81b4;stroke-width:21.6396;stroke-dasharray:none;stroke-opacity:1" transform="rotate(-2.831 2.52 -10.248)scale(.00693)"/>
        <ellipse cx="3.156" cy="2.681" rx=".949" ry=".921" style="fill:url(#d);fill-opacity:1;stroke:#2d6296;stroke-width:.201628;stroke-linecap:square;stroke-linejoin:bevel;stroke-dasharray:none;stroke-opacity:1"/>
        <path d="M3.132 2.655v-.66" style="fill:#fff;fill-opacity:1;stroke:#2d6296;stroke-width:.184;stroke-linecap:square;stroke-linejoin:miter;stroke-dasharray:none;stroke-opacity:1" transform="translate(.055 .083)"/>
        <path d="m3.105 2.748-.296.316" style="fill:#fff;fill-opacity:1;stroke:#2d6296;stroke-width:.169448;stroke-linecap:square;stroke-linejoin:miter;stroke-dasharray:none;stroke-opacity:1" transform="translate(.055 .083)"/>
    </g>
</svg>
