<svg xmlns="http://www.w3.org/2000/svg" xmlns:xlink="http://www.w3.org/1999/xlink" xml:space="preserve" width="16" height="16">
    <defs>
        <linearGradient id="a">
            <stop offset="0" style="stop-color:#cae2f9;stop-opacity:1"/>
            <stop offset="1" style="stop-color:#fdfeff;stop-opacity:1"/>
        </linearGradient>
        <linearGradient xlink:href="#a" id="b" x1="-1.399" x2=".808" y1="1.9" y2="4.389" gradientTransform="matrix(.5982 0 0 .61545 3.224 .36)" gradientUnits="userSpaceOnUse"/>
    </defs>
    <path d="M2.688 1.198c.365-.05.654.084.86.262.195.168.433.424.43.81-.027.97-.765 1.184-1.395 1.174-.326-.015-.624-.073-.918-.52a1 1 0 0 1-.156-.398l-.004-.465" style="fill:none;stroke:#2d6296;stroke-width:.22993474;stroke-linecap:square;stroke-linejoin:bevel;stroke-opacity:1;stroke-miterlimit:4;stroke-dasharray:none" transform="translate(-2.41 -1.66)scale(4.34906)"/>
    <path d="m1.5 2.023-.456.394m.466-.394.456.394" style="fill:none;stroke:#2d6296;stroke-width:.22993474;stroke-linecap:round;stroke-linejoin:bevel;stroke-opacity:1;stroke-miterlimit:4;stroke-dasharray:none" transform="translate(-2.41 -1.66)scale(4.34906)"/>
    <rect width="1.934" height="1.431" x="1.462" y=".887" ry=".4" style="fill:url(#b);fill-opacity:1;stroke:#4d81b4;stroke-width:.19893767;stroke-linecap:round;stroke-miterlimit:4;stroke-dasharray:none;stroke-dashoffset:.300095;stroke-opacity:1" transform="translate(-4.864 -2.776)scale(4.02136)"/>
</svg>
